<?xml version="1.0"?><svg version="1.2" baseProfile="tiny-ps" viewBox="0 0 300 300" xmlns="http://www.w3.org/2000/svg" xmlns:xlink="http://www.w3.org/1999/xlink"><title>emoviral</title><g><g fill="#fcfcfc" transform="matrix(.1 0 0 -.1 0 300)"><path d="M380 2961c-30-10-75-28-100-41l-44-23-58-55c-68-64-109-126-140-208l-23-59-3-1039L9 497l11-56 10-56 35-73 34-72 52-55c61-65 124-107 205-137l59-23 1020-3 1020-3 85 10 85 11 74 36 75 37 65 66 66 66 28 56c16 31 35 81 42 110l15 54v2061l-15 59c-9 32-30 86-48 119l-32 61-60 60-60 60-60 32c-33 17-84 38-114 47l-55 16-1055-1H435l-55-18z"/></g><g fill="#bab6bd" transform="matrix(.1 0 0 -.1 0 300)"><path d="M380 2961c-30-10-75-28-100-41l-44-23-58-55c-68-64-109-126-140-208l-23-59-3-1039L9 497l11-56 10-56 35-73 34-72 52-55c61-65 124-107 205-137l59-23 1020-3 1020-3 85 10 85 11 74 36 75 37 65 66 66 66 28 56c16 31 35 81 42 110l15 54v2061l-15 59c-9 32-30 86-48 119l-32 61-60 60-60 60-60 32c-33 17-84 38-114 47l-55 16-1055-1H435l-55-18zm1085-836 58-30 32-46 31-45 108-300c60-164 115-311 123-326l14-28h47l79 123c44 67 144 226 223 352l143 230 37 37 38 37 53 15 53 16h67c37 0 74-3 83-6l16-6v-38l-248-387c-342-533-435-674-463-700-31-28-90-53-127-53h-28l-51 25-51 26-25 37-26 37-127 359-128 359-21 30c-11 17-33 40-48 51l-28 21-374 3-373 3-12 14-11 13 15 36c8 19 33 55 56 79l41 45 37 18c20 9 51 21 67 25l30 7 316-1 315-2 59-30zm-196-399 11-13-21-89-21-89-15-17-16-18H839c-202 0-374 3-383 6l-16 6v25c0 13 7 56 16 96l16 72 16 18 15 17h755l11-14zm-181-423c15-11 37-35 50-53l22-33v-99l-17-35-16-35-36-23-36-24-41-7-42-6-36 12-36 12-52 44-52 44H384l-22 16-22 15v66l21 19 21 19 223 5 223 5 41 33c22 18 51 37 63 42l23 10 53-3 53-4 27-20z"/></g><g fill="#727585" transform="matrix(.1 0 0 -.1 0 300)"><path d="M380 2961c-30-10-75-28-100-41l-44-23-58-55c-68-64-109-126-140-208l-23-59-3-1039L9 497l11-56 10-56 35-73 34-72 52-55c61-65 124-107 205-137l59-23 1020-3 1020-3 85 10 85 11 74 36 75 37 65 66 66 66 28 56c16 31 35 81 42 110l15 54v2061l-15 59c-9 32-30 86-48 119l-32 61-60 60-60 60-60 32c-33 17-84 38-114 47l-55 16-1055-1H435l-55-18zm1051-816c55-20 104-57 134-103l23-37 113-310c61-170 119-318 127-327 20-24 34-23 59 5 19 21 258 396 391 612l61 101 31 22c17 13 49 30 72 38l41 14h176l10-19 11-19-92-143c-224-352-525-820-569-884l-49-70-35-24-35-23-44-5-44-5-36 12c-49 16-92 54-117 101-10 22-76 197-144 390l-125 351-21 29c-11 16-33 36-49 44l-29 15H569l-21 11-20 11 6 29c3 17 20 50 37 75l30 45 39 25c22 14 56 32 77 40l38 13 316 1h316l44-15zm-154-421 6-16-23-94-22-94-18-10-19-10H452l-11 14-11 13 15 69c8 38 18 79 20 91 3 12 12 29 21 37l15 16h770l6-16zm-194-417 38-21 19-31c11-17 22-49 26-71l6-40-16-39c-21-50-42-72-88-96l-37-19h-92l-29 15c-16 8-49 33-75 55l-46 40H371l-20 26c-28 36-26 50 8 85l29 29h430l47 39 48 40 36 9 36 10 30-5c17-3 47-15 68-26z"/></g><g fill="#414762" transform="matrix(.1 0 0 -.1 0 300)"><path d="M380 2961c-30-10-75-28-100-41l-44-23-58-55c-68-64-109-126-140-208l-23-59-3-1039L9 497l11-56 10-56 35-73 34-72 52-55c61-65 124-107 205-137l59-23 1020-3 1020-3 85 10 85 11 74 36 75 37 65 66 66 66 28 56c16 31 35 81 42 110l15 54v2061l-15 59c-9 32-30 86-48 119l-32 61-60 60-60 60-60 32c-33 17-84 38-114 47l-55 16-1055-1H435l-55-18zm1065-819c59-27 98-62 130-117 13-22 73-177 134-344l110-304 15-15 14-15 16 6 16 7 63 97c34 53 139 218 232 367l170 270 47 29 46 29 75 10 74 11 38-9 38-9 10-16 10-16-268-419c-148-231-308-478-356-551l-89-132-45-27-46-26-58 4-59 4-36 28c-20 15-48 44-61 64l-23 37-116 330c-63 182-128 355-144 385l-28 55-35 17-34 18H569l-20 10-19 11v45l28 45c52 81 119 124 217 140l50 7 285-2 285-2 50-22zm-184-402 19-11v-27c0-15-9-61-20-102l-19-75-22-18-22-18-368 3-368 3-16 16-17 16 18 89 18 89 22 22 23 23h732l20-10zm-170-434 41-27 19-42 19-42v-32c0-43-16-83-48-116-33-35-55-48-102-58l-35-8-43 11-43 11-51 46-51 46-220 5-219 5-14 19c-8 11-14 30-14 42v21l25 25 25 26 31 6c18 3 119 6 225 6h193l34 30c19 16 50 37 68 45l34 15 43-4 42-4 41-26z"/></g><g fill="#0f356c" transform="matrix(.1 0 0 -.1 0 300)"><path d="M380 2961c-30-10-75-28-100-41l-44-23-58-55c-68-64-109-126-140-208l-23-59-3-1039L9 497l11-56 10-56 35-73 34-72 52-55c61-65 124-107 205-137l59-23 1020-3 1020-3 85 10 85 11 74 36 75 37 65 66 66 66 28 56c16 31 35 81 42 110l15 54v2061l-15 59c-9 32-30 86-48 119l-32 61-60 60-60 60-60 32c-33 17-84 38-114 47l-55 16-1055-1H435l-55-18zm1036-806 50-15 42-35c23-20 51-49 62-65l20-28 116-319 115-318 16-12 15-12 14 6c14 5 129 181 344 526l123 198 36 30 36 30 54 15 53 16 75-4 74-3 10-15c5-8 8-22 6-30-2-9-72-121-154-250-247-387-443-691-495-768l-49-73-39-28-40-29-35-6-35-7-42 12-43 11-46 47-46 46-30 80c-17 44-77 213-134 375l-104 294-28 33-29 33-36 10-37 10H554l-12 12c-28 28-9 80 57 151 40 43 91 73 148 86l38 9 291 1 290 1 50-15zm-143-423 17-18-21-90-21-89-25-22-24-23H461l-16 17-17 16 6 39c4 21 11 61 17 88l10 49 20 26 20 25h756l16-18zm-203-412 39-20 27-35 27-36 5-49 4-49-22-45-22-46-43-26c-24-14-59-28-78-31l-35-5-37 12-37 12-49 44-50 44H379l-24 25-25 24v21c0 32 17 58 50 75l29 15h420l34 30c19 16 47 37 63 45l29 15h76l39-20z"/></g><g fill="#061949" transform="matrix(.1 0 0 -.1 0 300)"><path d="M395 2964c-22-7-29-10-15-7l25 7 1065 6 1065 5-1050 2-1050 1-40-14zm2155 7c8-5 31-11 50-15l35-6-20 8c-11 5-33 12-50 16l-30 6 15-9zm-2270-52-55-30-53-52c-29-29-66-73-82-98-31-47-70-150-69-178 0-9 8 9 18 39s30 80 46 110l28 54 61 61 61 60 60 32c33 18 56 33 50 33-5 0-35-14-65-31zm2422-5 67-36 59-59 60-60 31-58c16-32 37-84 46-116l15-59V462l-21-68-21-69-44-67-45-67-52-42c-65-52-131-85-205-104l-57-15 45 5 45 5 74 37 75 36 65 66 66 66 28 56c16 31 35 81 42 110l15 54v2061l-15 59c-9 32-30 86-48 119l-32 61-60 60-60 60-61 33c-34 17-66 32-70 32-5 0 21-17 58-36zM12 1509 10 493l10-54 10-54 40-81 40-81 64-61 64-60 56-27c31-15 59-26 61-23 2 2-23 17-57 33l-62 30-56 55C117 231 80 289 47 377l-22 58-5 1045-5 1045-3-1016zm721 656c-23-7-62-25-87-39l-45-26-41-57-40-56v-66l20-11 19-10 358 3 358 2-361 3-360 2-12 12c-7 7-12 22-12 35v23l24 38c35 54 84 98 141 124l50 23 315 5 315 6-300 1-300 2-42-14zm1709-4-53-18-35-34c-20-19-61-74-92-124-259-415-368-583-387-604l-23-23-15 23c-9 13-61 149-116 302-125 344-124 341-166 393l-35 42-52 26c-28 14-61 26-72 25h-21l46-15 46-14 46-40c25-22 54-55 65-73s70-171 132-342l112-310 15-12 15-12 14 6c14 5 129 181 344 526l123 198 36 30 36 30 54 15 53 16 75-4 74-3 10-15c5-8 8-22 6-30-2-9-72-121-154-250-247-387-443-691-495-768l-49-73-39-28-40-29-35-6-35-7-40 11-41 11-40 36c-22 20-47 50-56 67s-74 193-144 391l-128 360-36 33-35 32h-17l-18-1 31-13 31-14 20-28 21-29 125-353 126-354 26-45 27-45 44-28c25-15 60-31 79-34l35-7 40 11 41 11 40 36 40 36 66 101c37 56 192 297 345 535l279 435-3 20-3 20-25 13-25 13h-70l-70-1-53-18zM477 1730l-25-29-12-53c-6-29-14-72-17-94l-5-41 23-17 23-16 371 2 370 3-378 5-378 5-10 15-10 15 6 38c3 20 10 60 16 87l10 49 20 26 20 25h756l17-19 17-19-6-28-5-29 9 20c15 31 13 43-9 65l-20 20H502l-25-30zm789-116c-4-20-5-38-3-40 3-3 8 11 11 32 4 20 5 38 3 40-3 3-8-11-11-32zm-16-64c0-8-10-24-22-37l-23-24 16 6c9 3 22 17 29 31l13 24-6 7-7 6v-13zm-326-214c-17-8-47-28-66-45l-36-31H409l-29-15c-16-8-36-25-44-37l-16-22v-54l31-26 31-26h408l55-45 55-44 41-12 41-13 46 13 47 12 32 25 33 25 20 39 20 39-1 48-2 48-6-55-6-55-23-37-23-37-51-25-52-26h-28c-43 0-96 26-144 70l-44 40H379l-24 25-25 24v21c0 32 17 58 50 75l29 15h419l43 36c51 43 78 54 125 54h35l40-20 39-21 30-41c17-22 30-36 30-30 0 20-68 89-104 106l-34 16h-39c-21-1-52-7-69-14zM385 40c19-8 83-14 74-6-2 2-24 6-49 9l-45 6 20-9zm143-17c7-3 16-2 19 1 4 3-2 6-13 5l-19-1 13-5zm125 0c9-2 23-2 30 0l12 5h-60l18-5zm55 0c6-2 18-2 25 0l12 5h-50l13-5zm125 0c43-2 110-2 150 0l72 3H755l78-3zm260 0c20-2 54-2 75 0l37 4h-150l38-4zm170 0c9-2 23-2 30 0l12 5h-60l18-5zm130 0c15-2 37-2 50 0l22 4h-100l28-4zm90 0c9-2 25-2 35 0l17 5h-70l18-5zm95 0c7-3 16-2 19 1 4 3-2 6-13 5l-19-1 13-5zm110 0c28-2 76-2 105 0l52 3h-210l53-3zm240 0c34-2 88-2 120 0l57 3h-240l63-3zm245 0c37-2 96-2 130 0l62 3h-260l68-3zm225 0c18-2 45-2 60 0l27 4h-120l33-4z"/></g></g></svg>